<svg width="48" height="48" viewBox="0 0 48 48" xmlns="http://www.w3.org/2000/svg">
<g clip-path="url(#clip0_0_429)">
<path d="M23.99 4C12.94 4 4 12.95 4 24C4 35.05 12.94 44 23.99 44C35.04 44 44 35.05 44 24C44 12.95 35.04 4 23.99 4ZM24 40C15.16 40 8 32.84 8 24C8 15.16 15.16 8 24 8C32.84 8 40 15.16 40 24C40 32.84 32.84 40 24 40Z"/>
<path d="M25 14H22V26L32.49 32.3L34 29.84L25 24.5V14Z"/>
</g>
<defs>
<clipPath id="clip0_0_429">
<rect width="48" height="48" fill="white"/>
</clipPath>
</defs>
</svg>
