<svg width="14" height="14" viewBox="0 0 14 14" fill="none" xmlns="http://www.w3.org/2000/svg">
<path d="M9.33333 3.49999V3.03332C9.33333 2.37993 9.33333 2.05323 9.20617 1.80367C9.09432 1.58415 8.91584 1.40567 8.69632 1.29382C8.44676 1.16666 8.12006 1.16666 7.46667 1.16666H6.53333C5.87994 1.16666 5.55324 1.16666 5.30368 1.29382C5.08416 1.40567 4.90568 1.58415 4.79383 1.80367C4.66667 2.05323 4.66667 2.37993 4.66667 3.03332V3.49999M5.83333 6.70832V9.62499M8.16667 6.70832V9.62499M1.75 3.49999H12.25M11.0833 3.49999V10.0333C11.0833 11.0134 11.0833 11.5035 10.8926 11.8778C10.7248 12.2071 10.4571 12.4748 10.1278 12.6426C9.75347 12.8333 9.26342 12.8333 8.28333 12.8333H5.71667C4.73657 12.8333 4.24653 12.8333 3.87218 12.6426C3.5429 12.4748 3.27518 12.2071 3.10741 11.8778C2.91667 11.5035 2.91667 11.0134 2.91667 10.0333V3.49999" stroke="#22252A" stroke-width="1.2" stroke-linecap="round" stroke-linejoin="round"/>
</svg>
