<svg width="14" height="15" viewBox="0 0 14 15" fill="none" xmlns="http://www.w3.org/2000/svg">
<path d="M1.62669 11.5323C1.67264 11.1188 1.69561 10.9121 1.75816 10.7188C1.81367 10.5474 1.89208 10.3842 1.99129 10.2338C2.10311 10.0642 2.2502 9.91713 2.54438 9.62295L9.91733 2.25001C10.5617 1.60568 11.6063 1.60568 12.2507 2.25001V2.25001C12.895 2.89434 12.895 3.93901 12.2507 4.58334L4.87771 11.9563C4.58353 12.2505 4.43644 12.3976 4.26687 12.5094C4.11643 12.6086 3.95327 12.687 3.78183 12.7425C3.58859 12.8051 3.38184 12.828 2.96835 12.874L1.45898 13.0417L1.62669 11.5323Z" stroke="#23262A" stroke-width="1.3" stroke-linecap="round" stroke-linejoin="round"/>
</svg>
