<svg width="20" height="20" viewBox="0 0 20 20" fill="none" xmlns="http://www.w3.org/2000/svg">
<rect width="20" height="20" fill="#ECECEC"/>
<g id="Recipe" clip-path="url(#clip0_0_1)">
<rect width="375" height="2584" transform="translate(-311 -586)" fill="#FAFAFA"/>
<g id="table">
<g id="table_2">
<g id="1">
<rect x="-295" y="-33" width="343" height="86" rx="8" fill="#EBF3D4"/>
<g id="text">
<g id="checkbox">
<rect id="Rectangle" x="1" y="1" width="18" height="18" rx="4" stroke="#7E7E7E" stroke-opacity="0.5"/>
<path id="pick" d="M12.7738 6.01229C13.0447 5.61264 13.5884 5.5083 13.988 5.77926C14.3877 6.05021 14.492 6.59384 14.2211 6.9935L9.47925 13.9876C9.13243 14.4992 8.37879 14.4992 8.03197 13.9876L5.77962 10.6654C5.50867 10.2658 5.613 9.72215 6.01266 9.45119C6.41231 9.18024 6.95595 9.28457 7.2269 9.68423L8.75561 11.9391L12.7738 6.01229Z" fill="#8BAA36"/>
</g>
</g>
</g>
</g>
</g>
</g>
<defs>
<clipPath id="clip0_0_1">
<rect width="375" height="2584" fill="white" transform="translate(-311 -586)"/>
</clipPath>
</defs>
</svg>
