
<svg fill="none" width="19" height="19" viewBox="0 -2.04 16 16" id="mail-16px" xmlns="http://www.w3.org/2000/svg">
  <path id="Path_76" data-name="Path 76" d="M-8.417,3.169a2.493,2.493,0,0,0-.707-.707A2.481,2.481,0,0,0-10.5,2.045h-11a2.481,2.481,0,0,0-1.376.417,2.493,2.493,0,0,0-.707.707A2.483,2.483,0,0,0-24,4.545v6.91a2.5,2.5,0,0,0,2.5,2.5h11a2.5,2.5,0,0,0,2.5-2.5V4.545A2.483,2.483,0,0,0-8.417,3.169ZM-21.5,3.045h11a1.48,1.48,0,0,1,.643.151L-16,9.338-22.143,3.2A1.48,1.48,0,0,1-21.5,3.045Zm11,9.91h-11a1.48,1.48,0,0,1-.643-.151l3.087-3.087a.5.5,0,0,0,0-.707.5.5,0,0,0-.707,0L-22.85,12.1a1.489,1.489,0,0,1-.15-.642V4.545a1.489,1.489,0,0,1,.15-.642l6.5,6.5a.5.5,0,0,0,.354.146.5.5,0,0,0,.354-.146l6.5-6.5A1.489,1.489,0,0,1-9,4.545v6.91a1.489,1.489,0,0,1-.15.642L-12.237,9.01a.5.5,0,0,0-.707,0,.5.5,0,0,0,0,.707L-9.857,12.8A1.48,1.48,0,0,1-10.5,12.955Z" transform="translate(24 -2.045)"/>
</svg>